<svg width="39" height="42" viewBox="0 0 39 42" fill="none" xmlns="http://www.w3.org/2000/svg">
<path d="M38.485 26.3386L35.4733 23.7134C35.6159 22.8227 35.6894 21.9132 35.6894 21.0038C35.6894 20.0944 35.6159 19.1849 35.4733 18.2942L38.485 15.6691C38.7122 15.4708 38.8748 15.2067 38.9511 14.912C39.0275 14.6172 39.0141 14.3057 38.9126 14.0189L38.8712 13.8971C38.0421 11.5345 36.8006 9.34441 35.2067 7.43255L35.1239 7.3341C34.9305 7.1023 34.6728 6.93567 34.3847 6.85617C34.0966 6.77667 33.7917 6.78803 33.51 6.88876L29.7719 8.24354C28.3925 7.09034 26.8522 6.1809 25.1877 5.54335L24.4658 1.5587C24.4113 1.25888 24.2687 0.983048 24.0568 0.767856C23.8449 0.552663 23.5738 0.408294 23.2795 0.353931L23.1554 0.330492C20.7598 -0.110164 18.2402 -0.110164 15.8446 0.330492L15.7205 0.353931C15.4262 0.408294 15.1551 0.552663 14.9432 0.767856C14.7313 0.983048 14.5887 1.25888 14.5342 1.5587L13.8077 5.56211C12.1565 6.19978 10.6189 7.10874 9.25572 8.25292L5.48998 6.88876C5.20843 6.78723 4.90324 6.77546 4.61497 6.85501C4.3267 6.93455 4.06899 7.10165 3.8761 7.3341L3.79333 7.43255C2.20127 9.34576 0.959955 11.5355 0.128752 13.8971L0.0873707 14.0189C-0.119538 14.6049 0.050587 15.2612 0.514982 15.6691L3.56344 18.3224C3.4209 19.2037 3.35193 20.1037 3.35193 20.9991C3.35193 21.8992 3.4209 22.7992 3.56344 23.6759L0.514982 26.3292C0.287822 26.5274 0.125242 26.7915 0.048858 27.0863C-0.0275256 27.381 -0.0140928 27.6925 0.0873707 27.9793L0.128752 28.1012C0.960985 30.4638 2.19324 32.6437 3.79333 34.5657L3.8761 34.6641C4.06946 34.8959 4.32718 35.0626 4.61528 35.1421C4.90338 35.2216 5.20834 35.2102 5.48998 35.1095L9.25572 33.7453C10.6259 34.8938 12.157 35.8033 13.8077 36.4361L14.5342 40.4395C14.5887 40.7394 14.7313 41.0152 14.9432 41.2304C15.1551 41.4456 15.4262 41.5899 15.7205 41.6443L15.8446 41.6677C18.2622 42.1108 20.7378 42.1108 23.1554 41.6677L23.2795 41.6443C23.5738 41.5899 23.8449 41.4456 24.0568 41.2304C24.2687 41.0152 24.4113 40.7394 24.4658 40.4395L25.1877 36.4549C26.8515 35.819 28.4005 34.9066 29.7719 33.7547L33.51 35.1095C33.7916 35.211 34.0968 35.2228 34.385 35.1432C34.6733 35.0637 34.931 34.8966 35.1239 34.6641L35.2067 34.5657C36.8068 32.639 38.039 30.4638 38.8712 28.1012L38.9126 27.9793C39.1195 27.4027 38.9494 26.7464 38.485 26.3386ZM32.2088 18.8474C32.3237 19.5553 32.3835 20.2819 32.3835 21.0085C32.3835 21.7351 32.3237 22.4617 32.2088 23.1696L31.9053 25.0494L35.34 28.0449C34.8193 29.2679 34.1621 30.4256 33.3813 31.4952L29.1144 29.9529L27.6706 31.1623C26.5717 32.0811 25.3486 32.8031 24.0244 33.3093L22.2726 33.9797L21.4495 38.5269C20.1509 38.6769 18.8399 38.6769 17.5413 38.5269L16.7182 33.9703L14.9802 33.2906C13.6698 32.7843 12.4513 32.0624 11.3616 31.1483L9.91783 29.9341L5.62333 31.4905C4.84167 30.417 4.18876 29.2591 3.66459 28.0402L7.13606 25.0166L6.83719 23.1415C6.72684 22.443 6.66707 21.721 6.66707 21.0085C6.66707 20.2913 6.72224 19.574 6.83719 18.8755L7.13606 17.0004L3.66459 13.9768C4.18416 12.7532 4.84167 11.6 5.62333 10.5265L9.91783 12.0829L11.3616 10.8687C12.4513 9.9546 13.6698 9.23267 14.9802 8.72639L16.7228 8.05603L17.5459 3.49946C18.8379 3.34945 20.1575 3.34945 21.4541 3.49946L22.2772 8.04665L24.029 8.71701C25.3486 9.2233 26.5763 9.94522 27.6752 10.864L29.119 12.0735L33.3859 10.5312C34.1675 11.6047 34.8204 12.7626 35.3446 13.9814L31.9099 16.977L32.2088 18.8474ZM19.5046 12.2891C15.0354 12.2891 11.4122 15.9831 11.4122 20.5397C11.4122 25.0963 15.0354 28.7903 19.5046 28.7903C23.9738 28.7903 27.597 25.0963 27.597 20.5397C27.597 15.9831 23.9738 12.2891 19.5046 12.2891ZM23.1462 24.2525C22.6686 24.7408 22.1009 25.1281 21.476 25.392C20.851 25.6559 20.181 25.7911 19.5046 25.7901C18.1298 25.7901 16.8378 25.2416 15.863 24.2525C15.384 23.7655 15.0042 23.1868 14.7453 22.5496C14.4865 21.9124 14.3538 21.2294 14.3549 20.5397C14.3549 19.138 14.8928 17.8208 15.863 16.8269C16.8378 15.8331 18.1298 15.2893 19.5046 15.2893C20.8794 15.2893 22.1714 15.8331 23.1462 16.8269C23.6252 17.3139 24.005 17.8926 24.2639 18.5298C24.5227 19.167 24.6554 19.85 24.6543 20.5397C24.6543 21.9414 24.1164 23.2586 23.1462 24.2525Z" fill="white"/>
</svg>
