<svg width="38" height="41" viewBox="0 0 38 41" fill="none" xmlns="http://www.w3.org/2000/svg">
<path d="M19 0C8.5234 0 0 9.1963 0 20.5V28.9931C0 31.0923 1.7043 32.8 3.8 32.8H5.7C6.20391 32.8 6.68718 32.584 7.0435 32.1996C7.39982 31.8151 7.6 31.2937 7.6 30.75V20.2069C7.6 19.6632 7.39982 19.1417 7.0435 18.7573C6.68718 18.3728 6.20391 18.1569 5.7 18.1569H3.9748C5.0312 10.2234 11.3582 4.1 19 4.1C26.6418 4.1 32.9688 10.2234 34.0252 18.1569H32.3C31.7961 18.1569 31.3128 18.3728 30.9565 18.7573C30.6002 19.1417 30.4 19.6632 30.4 20.2069V32.8C30.4 35.0611 28.6957 36.9 26.6 36.9H22.8V34.85H15.2V41H26.6C30.7914 41 34.2 37.3223 34.2 32.8C36.2957 32.8 38 31.0923 38 28.9931V20.5C38 9.1963 29.4766 0 19 0Z" fill="black"/>
</svg>
