<svg width="40" height="40" viewBox="0 0 40 40" fill="none" xmlns="http://www.w3.org/2000/svg">
<circle cx="20" cy="20" r="20" fill="#D2D631"/>
<path d="M16.0556 22.2941V22.7941H16.5556H26.5556C26.8878 22.7941 27.1667 23.0704 27.1667 23.4118C27.1667 23.7531 26.8878 24.0294 26.5556 24.0294H15.4444C15.1122 24.0294 14.8333 23.7531 14.8333 23.4118V12.2353V11.7353H14.3333H12.1111C11.7789 11.7353 11.5 11.459 11.5 11.1176C11.5 10.7763 11.7789 10.5 12.1111 10.5H15.4444C15.7767 10.5 16.0556 10.7763 16.0556 11.1176V13.3529V13.8529H16.5556H30.1409L26.2646 20.6765H16.5556H16.0556V21.1765V22.2941ZM16 26.1471C16.6433 26.1471 17.1667 26.6693 17.1667 27.3235C17.1667 27.9778 16.6433 28.5 16 28.5C15.3567 28.5 14.8333 27.9778 14.8333 27.3235C14.8333 26.6693 15.3567 26.1471 16 26.1471ZM26 26.1471C26.6433 26.1471 27.1667 26.6693 27.1667 27.3235C27.1667 27.9778 26.6433 28.5 26 28.5C25.3567 28.5 24.8333 27.9778 24.8333 27.3235C24.8333 26.6693 25.3567 26.1471 26 26.1471Z" stroke="black"/>
</svg>
