<svg width="43" height="44" viewBox="0 0 43 44" fill="none" xmlns="http://www.w3.org/2000/svg">
<path d="M42.8771 21.2674L38.27 7.23612C38.1524 6.87381 37.9558 6.56468 37.7045 6.34725C37.4533 6.12982 37.1586 6.01371 36.8571 6.01339H32.25V2.00446C32.25 1.47285 32.0882 0.963004 31.8002 0.587094C31.5122 0.211184 31.1216 0 30.7143 0H1.53571C1.12842 0 0.737803 0.211184 0.4498 0.587094C0.161798 0.963004 0 1.47285 0 2.00446V36.0804C0 36.612 0.161798 37.1218 0.4498 37.4977C0.737803 37.8736 1.12842 38.0848 1.53571 38.0848H4.82214C5.17579 39.7833 5.94782 41.2828 7.01913 42.3518C8.09044 43.4208 9.40148 44 10.75 44C12.0985 44 13.4096 43.4208 14.4809 42.3518C15.5522 41.2828 16.3242 39.7833 16.6779 38.0848H26.3221C26.6758 39.7833 27.4478 41.2828 28.5191 42.3518C29.5904 43.4208 30.9015 44 32.25 44C33.5985 44 34.9096 43.4208 35.9809 42.3518C37.0522 41.2828 37.8242 39.7833 38.1779 38.0848H41.4643C41.8716 38.0848 42.2622 37.8736 42.5502 37.4977C42.8382 37.1218 43 36.612 43 36.0804V22.0491C42.9996 21.7804 42.9578 21.5146 42.8771 21.2674ZM32.25 10.0223H35.8436L39.13 20.0446H32.25V10.0223ZM10.75 40.0893C10.1425 40.0893 9.5487 39.8542 9.04361 39.4137C8.53851 38.9732 8.14484 38.347 7.91237 37.6145C7.6799 36.882 7.61908 36.0759 7.73759 35.2983C7.8561 34.5206 8.14862 33.8063 8.57817 33.2456C9.00772 32.685 9.555 32.3031 10.1508 32.1485C10.7466 31.9938 11.3642 32.0732 11.9254 32.3766C12.4866 32.68 12.9663 33.1939 13.3038 33.8531C13.6413 34.5124 13.8214 35.2875 13.8214 36.0804C13.8214 37.1436 13.4978 38.1633 12.9218 38.9151C12.3458 39.6669 11.5646 40.0893 10.75 40.0893ZM26.3221 34.0759H16.6779C16.3242 32.3774 15.5522 30.8779 14.4809 29.8089C13.4096 28.7399 12.0985 28.1607 10.75 28.1607C9.40148 28.1607 8.09044 28.7399 7.01913 29.8089C5.94782 30.8779 5.17579 32.3774 4.82214 34.0759H3.07143V4.00893H29.1786V29.185C28.4793 29.7148 27.867 30.4195 27.3768 31.2588C26.8866 32.0981 26.5282 33.0554 26.3221 34.0759ZM32.25 40.0893C31.6425 40.0893 31.0487 39.8542 30.5436 39.4137C30.0385 38.9732 29.6448 38.347 29.4124 37.6145C29.1799 36.882 29.1191 36.0759 29.2376 35.2983C29.3561 34.5206 29.6486 33.8063 30.0782 33.2456C30.5077 32.685 31.055 32.3031 31.6508 32.1485C32.2466 31.9938 32.8642 32.0732 33.4254 32.3766C33.9866 32.68 34.4663 33.1939 34.8038 33.8531C35.1413 34.5124 35.3214 35.2875 35.3214 36.0804C35.3214 37.1436 34.9978 38.1633 34.4218 38.9151C33.8458 39.6669 33.0646 40.0893 32.25 40.0893ZM39.9286 34.0759H38.1779C37.8383 32.3591 37.0722 30.8377 35.9997 29.7496C34.9271 28.6616 33.6084 28.0683 32.25 28.0625V24.0536H39.9286V34.0759Z" fill="black"/>
</svg>
